<svg width="151" height="96" viewBox="0 0 151 96" fill="none" xmlns="http://www.w3.org/2000/svg">
<path d="M130.902 94.3688H4.91744C3.79699 94.3688 2.72243 93.9236 1.93015 93.1313C1.13786 92.339 0.692769 91.2645 0.692769 90.1441C45.3469 84.8361 90.4727 84.8361 135.127 90.1441C135.127 91.2645 134.682 92.339 133.889 93.1313C133.097 93.9236 132.023 94.3688 130.902 94.3688Z" fill="#919599"/>
<path d="M135.127 90.391L0.69277 90.1425L16.2741 63.9297L16.3489 63.8054V6.02675C16.3489 5.3254 16.4871 4.63092 16.7556 3.98298C17.024 3.33504 17.4175 2.74631 17.9135 2.25047C18.4095 1.75462 18.9983 1.36137 19.6463 1.09313C20.2944 0.824896 20.9889 0.68691 21.6902 0.687134H113.389C114.09 0.687134 114.785 0.825313 115.433 1.09376C116.081 1.3622 116.669 1.75565 117.165 2.25166C117.661 2.74767 118.054 3.33652 118.323 3.98454C118.591 4.63256 118.729 5.32707 118.729 6.02841V64.2088L135.127 90.391Z" fill="#BABFC5"/>
<path d="M21.5677 4.41479C21.1065 4.41525 20.6642 4.59871 20.3381 4.92484C20.012 5.25098 19.8286 5.69315 19.8281 6.15437V58.8352C19.8286 59.2965 20.012 59.7386 20.3381 60.0648C20.6642 60.3909 21.1065 60.5744 21.5677 60.5748H114.247C114.708 60.5744 115.15 60.3909 115.476 60.0648C115.803 59.7386 115.986 59.2965 115.986 58.8352V6.15437C115.986 5.69315 115.803 5.25098 115.476 4.92484C115.15 4.59871 114.708 4.41525 114.247 4.41479H21.5677Z" fill="white"/>
<path d="M21.9523 67.5314C21.8092 67.5309 21.6689 67.5715 21.5482 67.6485C21.4275 67.7254 21.3315 67.8355 21.2715 67.9654L16.4715 78.4028C16.4191 78.5167 16.3963 78.6419 16.4052 78.7669C16.414 78.8919 16.4542 79.0127 16.522 79.1181C16.5899 79.2234 16.6832 79.31 16.7934 79.3697C16.9035 79.4295 17.027 79.4605 17.1523 79.4599H118.111C118.238 79.46 118.363 79.4275 118.474 79.3657C118.585 79.3038 118.678 79.2146 118.745 79.1065C118.812 78.9983 118.85 78.8748 118.856 78.7478C118.862 78.6208 118.835 78.4944 118.778 78.3807L113.559 67.945C113.498 67.8207 113.402 67.7163 113.285 67.6435C113.167 67.5707 113.031 67.5324 112.892 67.533L21.9523 67.5314Z" fill="#919599"/>
<path d="M67.537 3.54506C68.1546 3.54506 68.6553 3.04439 68.6553 2.42677C68.6553 1.80915 68.1546 1.30847 67.537 1.30847C66.9194 1.30847 66.4187 1.80915 66.4187 2.42677C66.4187 3.04439 66.9194 3.54506 67.537 3.54506Z" fill="white"/>
<path d="M57.6136 81.4463C57.4497 81.4465 57.2905 81.5007 57.1604 81.6004C57.0303 81.7 56.9365 81.8397 56.8936 81.9978L55.6885 86.471C55.6587 86.5815 55.6547 86.6974 55.677 86.8097C55.6992 86.922 55.747 87.0277 55.8166 87.1186C55.8862 87.2094 55.9758 87.283 56.0784 87.3336C56.1811 87.3843 56.294 87.4106 56.4085 87.4106H79.3106C79.4295 87.4106 79.5465 87.3822 79.6521 87.3278C79.7577 87.2734 79.8488 87.1944 79.9178 87.0977C79.9867 87.0009 80.0316 86.8891 80.0485 86.7715C80.0655 86.6539 80.0541 86.534 80.0153 86.4217L78.4664 81.9485C78.4157 81.8019 78.3206 81.6747 78.1943 81.5847C78.068 81.4947 77.9168 81.4463 77.7617 81.4463H57.6136Z" fill="#919599"/>
<path d="M118.727 62.934V63.928H16.274L16.3506 63.8037V62.934H118.727Z" fill="#919599"/>
<path d="M83.1353 24.8523H95.1523V21.9587H83.1353V24.8523Z" fill="#BABFC5"/>
<path d="M41.5166 24.8523H45.7447V21.9587H41.5166V24.8523Z" fill="#F3ACAC"/>
<path d="M33.0604 24.8523H37.2885V21.9587H33.0604V24.8523Z" fill="#F3ACAC"/>
<path d="M50.1957 24.8523L78.9055 24.8523V21.9587L50.1957 21.9587V24.8523Z" fill="#BABFC5"/>
<path d="M56.6502 43.5468H60.8783V40.6531H56.6502V43.5468Z" fill="#F3ACAC"/>
<path d="M48.1923 43.5468H52.4204V40.6531H48.1923V43.5468Z" fill="#F3ACAC"/>
<path d="M65.3293 43.5468H94.0392V40.6531H65.3293V43.5468Z" fill="#BABFC5"/>
<path d="M48.6383 31.3068H60.6553V28.4131H48.6383V31.3068Z" fill="#BABFC5"/>
<path d="M32.3932 31.3068H44.4102V28.4131H32.3932V31.3068Z" fill="#BABFC5"/>
<path d="M97.6 31.3068H101.828V28.4131H97.6V31.3068Z" fill="#EA4335"/>
<path d="M64.6621 31.3068L93.3719 31.3068V28.4131L64.6621 28.4131V31.3068Z" fill="#BABFC5"/>
<path d="M85.5813 34.6445H73.5643V37.5382H85.5813V34.6445Z" fill="#BABFC5"/>
<path d="M101.828 34.6445H89.8111V37.5382H101.828V34.6445Z" fill="#BABFC5"/>
<path d="M36.6196 34.6445H32.3915V37.5382H36.6196V34.6445Z" fill="#F3ACAC"/>
<path d="M69.5591 34.6445H40.8494V37.5382H69.5591V34.6445Z" fill="#BABFC5"/>
<path d="M125.416 46.5816C124.732 46.5816 124.075 46.3097 123.592 45.8258C123.108 45.3419 122.836 44.6855 122.836 44.0011V35.048C122.834 34.0931 122.454 33.1778 121.779 32.5027C121.104 31.8275 120.189 31.4476 119.234 31.4463H105.106C104.152 31.4476 103.236 31.8275 102.561 32.5027C101.886 33.1778 101.506 34.0931 101.505 35.048V44.0011C101.514 44.3455 101.453 44.6881 101.328 45.0088C101.202 45.3295 101.013 45.6218 100.773 45.8685C100.533 46.1151 100.245 46.3112 99.9279 46.445C99.6105 46.5789 99.2695 46.6478 98.9251 46.6478C98.5806 46.6478 98.2397 46.5789 97.9223 46.445C97.605 46.3112 97.3176 46.1151 97.0772 45.8685C96.8368 45.6218 96.6482 45.3295 96.5225 45.0088C96.3969 44.6881 96.3367 44.3455 96.3455 44.0011V35.048C96.3482 32.7248 97.2723 30.4976 98.915 28.8549C100.558 27.2122 102.785 26.2881 105.108 26.2854H119.236C121.559 26.2881 123.786 27.2122 125.429 28.8549C127.072 30.4976 127.996 32.7248 127.998 35.048V44.0011C127.999 44.3402 127.932 44.676 127.802 44.9893C127.672 45.3026 127.482 45.5872 127.242 45.8269C127.003 46.0666 126.718 46.2566 126.404 46.3861C126.091 46.5156 125.755 46.582 125.416 46.5816Z" fill="#3B79C0"/>
<path d="M142.592 65.2335H81.7532C79.709 65.2335 77.7484 64.4215 76.3028 62.9762C74.8571 61.5309 74.0447 59.5705 74.0443 57.5262V87.6539C74.0443 89.6984 74.8565 91.6592 76.3022 93.1049C77.7479 94.5506 79.7087 95.3629 81.7532 95.3629H142.592C144.637 95.3629 146.598 94.5506 148.043 93.1049C149.489 91.6592 150.301 89.6984 150.301 87.6539V57.5262C150.301 59.5705 149.488 61.5309 148.043 62.9762C146.597 64.4215 144.637 65.2335 142.592 65.2335Z" fill="#3B79C0"/>
<path d="M150.3 59.1978V49.608C150.3 45.3526 146.322 41.899 141.416 41.899H82.9277C78.0221 41.899 74.0443 45.3492 74.0443 49.608V59.1978C74.0443 63.4531 78.0221 66.9067 82.9277 66.9067H141.418C146.323 66.8982 150.3 63.4548 150.3 59.1978Z" fill="#3E8CD9"/>
<path d="M88.7064 74.2445C88.0821 74.2445 87.4639 74.1216 86.8871 73.8827C86.3103 73.6438 85.7862 73.2936 85.3448 72.8521C84.9033 72.4107 84.5531 71.8866 84.3142 71.3098C84.0753 70.733 83.9523 70.1148 83.9523 69.4905V60.4692C83.9523 60.0178 84.1317 59.5848 84.4509 59.2656C84.7701 58.9464 85.203 58.7671 85.6545 58.7671H91.7464C92.1978 58.7671 92.6308 58.9464 92.95 59.2656C93.2692 59.5848 93.4485 60.0178 93.4485 60.4692V69.4905C93.4485 70.7493 92.9493 71.9567 92.0603 72.8479C91.1713 73.7391 89.9652 74.2414 88.7064 74.2445Z" fill="#F8F9FA"/>
<path d="M83.9558 64.5493V69.4855C83.9793 70.7305 84.4905 71.9166 85.3793 72.7888C86.2681 73.661 87.4637 74.1495 88.709 74.1495C89.9542 74.1495 91.1498 73.661 92.0386 72.7888C92.9274 71.9166 93.4386 70.7305 93.4621 69.4855V64.5493H83.9558Z" fill="#F8F9FA"/>
<path d="M135.564 74.2445C134.94 74.2445 134.322 74.1216 133.745 73.8827C133.168 73.6438 132.644 73.2936 132.203 72.8521C131.761 72.4107 131.411 71.8866 131.172 71.3098C130.933 70.733 130.81 70.1148 130.81 69.4905V60.4692C130.81 60.0178 130.99 59.5848 131.309 59.2656C131.628 58.9464 132.061 58.7671 132.512 58.7671H138.604C139.056 58.7671 139.489 58.9464 139.808 59.2656C140.127 59.5848 140.306 60.0178 140.306 60.4692V69.4905C140.306 70.7493 139.807 71.9567 138.918 72.8479C138.029 73.7391 136.823 74.2414 135.564 74.2445Z" fill="#F8F9FA"/>
<path d="M130.814 64.5493V69.4855C130.837 70.7305 131.348 71.9166 132.237 72.7888C133.126 73.661 134.322 74.1495 135.567 74.1495C136.812 74.1495 138.008 73.661 138.896 72.7888C139.785 71.9166 140.296 70.7305 140.32 69.4855V64.5493H130.814Z" fill="#F8F9FA"/>
</svg>